<mxfile host="app.diagrams.net" modified="2020-09-13T09:09:37.234Z" agent="5.0 (Windows NT 10.0; Win64; x64) AppleWebKit/537.36 (KHTML, like Gecko) Chrome/85.0.4183.102 Safari/537.36" etag="q1telFrCwqsaM22t-5HW" version="13.6.10" type="github">
  <diagram id="prtHgNgQTEPvFCAcTncT" name="Page-1">
    <mxGraphModel dx="1185" dy="635" grid="1" gridSize="10" guides="1" tooltips="1" connect="1" arrows="1" fold="1" page="1" pageScale="1" pageWidth="827" pageHeight="1169" math="0" shadow="0">
      <root>
        <mxCell id="0" />
        <mxCell id="1" parent="0" />
        <mxCell id="Wlc6HDsytG8gvTmn-VpW-33" value="Controler&lt;br&gt;casing" style="rounded=1;whiteSpace=wrap;html=1;fillColor=#FFFFFF;verticalAlign=bottom;" vertex="1" parent="1">
          <mxGeometry x="550" y="370" width="120" height="165" as="geometry" />
        </mxCell>
        <mxCell id="Wlc6HDsytG8gvTmn-VpW-4" value="ESC&lt;br&gt;casing" style="rounded=1;whiteSpace=wrap;html=1;verticalAlign=bottom;" vertex="1" parent="1">
          <mxGeometry x="285" y="320" width="170" height="230" as="geometry" />
        </mxCell>
        <mxCell id="Wlc6HDsytG8gvTmn-VpW-40" style="rounded=0;orthogonalLoop=1;jettySize=auto;html=1;exitX=1;exitY=0.5;exitDx=0;exitDy=0;edgeStyle=elbowEdgeStyle;endArrow=none;endFill=0;" edge="1" parent="1" source="Wlc6HDsytG8gvTmn-VpW-34" target="Wlc6HDsytG8gvTmn-VpW-7">
          <mxGeometry relative="1" as="geometry">
            <Array as="points">
              <mxPoint x="360" y="470" />
            </Array>
          </mxGeometry>
        </mxCell>
        <mxCell id="Wlc6HDsytG8gvTmn-VpW-38" style="edgeStyle=orthogonalEdgeStyle;rounded=0;orthogonalLoop=1;jettySize=auto;html=1;exitX=1;exitY=0.5;exitDx=0;exitDy=0;entryX=0.25;entryY=0;entryDx=0;entryDy=0;endArrow=none;endFill=0;" edge="1" parent="1" source="Wlc6HDsytG8gvTmn-VpW-34" target="Wlc6HDsytG8gvTmn-VpW-6">
          <mxGeometry relative="1" as="geometry">
            <Array as="points">
              <mxPoint x="323" y="345" />
              <mxPoint x="323" y="388" />
              <mxPoint x="323" y="388" />
            </Array>
          </mxGeometry>
        </mxCell>
        <mxCell id="Wlc6HDsytG8gvTmn-VpW-19" style="edgeStyle=orthogonalEdgeStyle;rounded=0;orthogonalLoop=1;jettySize=auto;html=1;exitX=1;exitY=0.5;exitDx=0;exitDy=0;entryX=0;entryY=0.5;entryDx=0;entryDy=0;endArrow=none;endFill=0;" edge="1" parent="1" source="Wlc6HDsytG8gvTmn-VpW-26" target="Wlc6HDsytG8gvTmn-VpW-5">
          <mxGeometry relative="1" as="geometry" />
        </mxCell>
        <mxCell id="Wlc6HDsytG8gvTmn-VpW-1" value="Left&lt;br&gt;Motor" style="ellipse;whiteSpace=wrap;html=1;aspect=fixed;" vertex="1" parent="1">
          <mxGeometry x="90" y="300" width="80" height="80" as="geometry" />
        </mxCell>
        <mxCell id="Wlc6HDsytG8gvTmn-VpW-17" style="edgeStyle=orthogonalEdgeStyle;rounded=0;orthogonalLoop=1;jettySize=auto;html=1;exitX=1;exitY=0.5;exitDx=0;exitDy=0;entryX=0;entryY=0.5;entryDx=0;entryDy=0;endArrow=none;endFill=0;" edge="1" parent="1" source="Wlc6HDsytG8gvTmn-VpW-28" target="Wlc6HDsytG8gvTmn-VpW-6">
          <mxGeometry relative="1" as="geometry" />
        </mxCell>
        <mxCell id="Wlc6HDsytG8gvTmn-VpW-2" value="Right&lt;br&gt;Motor" style="ellipse;whiteSpace=wrap;html=1;aspect=fixed;" vertex="1" parent="1">
          <mxGeometry x="90" y="400" width="80" height="80" as="geometry" />
        </mxCell>
        <mxCell id="Wlc6HDsytG8gvTmn-VpW-18" style="edgeStyle=orthogonalEdgeStyle;rounded=0;orthogonalLoop=1;jettySize=auto;html=1;exitX=1;exitY=0.5;exitDx=0;exitDy=0;entryX=0;entryY=0.5;entryDx=0;entryDy=0;endArrow=none;endFill=0;" edge="1" parent="1" source="Wlc6HDsytG8gvTmn-VpW-3" target="Wlc6HDsytG8gvTmn-VpW-7">
          <mxGeometry relative="1" as="geometry" />
        </mxCell>
        <mxCell id="Wlc6HDsytG8gvTmn-VpW-3" value="Vertical&lt;br&gt;motor" style="ellipse;whiteSpace=wrap;html=1;aspect=fixed;" vertex="1" parent="1">
          <mxGeometry x="90" y="500" width="80" height="80" as="geometry" />
        </mxCell>
        <mxCell id="Wlc6HDsytG8gvTmn-VpW-47" style="edgeStyle=elbowEdgeStyle;rounded=0;orthogonalLoop=1;jettySize=auto;html=1;exitX=1;exitY=0.25;exitDx=0;exitDy=0;entryX=0;entryY=0.5;entryDx=0;entryDy=0;endArrow=none;endFill=0;" edge="1" parent="1" source="Wlc6HDsytG8gvTmn-VpW-5" target="Wlc6HDsytG8gvTmn-VpW-41">
          <mxGeometry relative="1" as="geometry" />
        </mxCell>
        <mxCell id="Wlc6HDsytG8gvTmn-VpW-53" style="edgeStyle=elbowEdgeStyle;rounded=0;orthogonalLoop=1;jettySize=auto;html=1;exitX=1;exitY=0.75;exitDx=0;exitDy=0;endArrow=none;endFill=0;entryX=0;entryY=0;entryDx=0;entryDy=0;" edge="1" parent="1" source="Wlc6HDsytG8gvTmn-VpW-5" target="Wlc6HDsytG8gvTmn-VpW-57">
          <mxGeometry relative="1" as="geometry">
            <mxPoint x="460" y="413" as="targetPoint" />
            <Array as="points">
              <mxPoint x="460" y="420" />
            </Array>
          </mxGeometry>
        </mxCell>
        <mxCell id="Wlc6HDsytG8gvTmn-VpW-5" value="ESC left" style="rounded=1;whiteSpace=wrap;html=1;" vertex="1" parent="1">
          <mxGeometry x="305" y="370" width="70" height="30" as="geometry" />
        </mxCell>
        <mxCell id="Wlc6HDsytG8gvTmn-VpW-50" style="edgeStyle=elbowEdgeStyle;rounded=0;orthogonalLoop=1;jettySize=auto;html=1;exitX=1;exitY=0.5;exitDx=0;exitDy=0;entryX=0;entryY=0.5;entryDx=0;entryDy=0;endArrow=none;endFill=0;" edge="1" parent="1" source="Wlc6HDsytG8gvTmn-VpW-6" target="Wlc6HDsytG8gvTmn-VpW-42">
          <mxGeometry relative="1" as="geometry">
            <Array as="points">
              <mxPoint x="390" y="450" />
              <mxPoint x="400" y="450" />
            </Array>
          </mxGeometry>
        </mxCell>
        <mxCell id="Wlc6HDsytG8gvTmn-VpW-54" style="edgeStyle=elbowEdgeStyle;rounded=0;orthogonalLoop=1;jettySize=auto;html=1;exitX=1;exitY=0.75;exitDx=0;exitDy=0;endArrow=none;endFill=0;entryX=0;entryY=0.75;entryDx=0;entryDy=0;" edge="1" parent="1" source="Wlc6HDsytG8gvTmn-VpW-6" target="Wlc6HDsytG8gvTmn-VpW-57">
          <mxGeometry relative="1" as="geometry">
            <mxPoint x="490" y="448" as="targetPoint" />
            <Array as="points">
              <mxPoint x="460" y="450" />
              <mxPoint x="470" y="440" />
              <mxPoint x="470" y="448" />
              <mxPoint x="460" y="460" />
              <mxPoint x="470" y="448" />
            </Array>
          </mxGeometry>
        </mxCell>
        <mxCell id="Wlc6HDsytG8gvTmn-VpW-6" value="ESC right" style="rounded=1;whiteSpace=wrap;html=1;" vertex="1" parent="1">
          <mxGeometry x="305" y="425" width="70" height="30" as="geometry" />
        </mxCell>
        <mxCell id="Wlc6HDsytG8gvTmn-VpW-55" style="edgeStyle=elbowEdgeStyle;rounded=0;orthogonalLoop=1;jettySize=auto;html=1;exitX=1;exitY=0.75;exitDx=0;exitDy=0;entryX=0;entryY=1;entryDx=0;entryDy=0;endArrow=none;endFill=0;" edge="1" parent="1" source="Wlc6HDsytG8gvTmn-VpW-7" target="Wlc6HDsytG8gvTmn-VpW-57">
          <mxGeometry relative="1" as="geometry">
            <Array as="points">
              <mxPoint x="470" y="435" />
              <mxPoint x="450" y="460" />
            </Array>
          </mxGeometry>
        </mxCell>
        <mxCell id="Wlc6HDsytG8gvTmn-VpW-7" value="ESC vertical" style="rounded=1;whiteSpace=wrap;html=1;" vertex="1" parent="1">
          <mxGeometry x="305" y="480" width="70" height="30" as="geometry" />
        </mxCell>
        <mxCell id="Wlc6HDsytG8gvTmn-VpW-20" value="Battery&lt;br&gt;casing" style="rounded=1;whiteSpace=wrap;html=1;verticalAlign=top;" vertex="1" parent="1">
          <mxGeometry x="430" y="20" width="120" height="180" as="geometry" />
        </mxCell>
        <mxCell id="Wlc6HDsytG8gvTmn-VpW-21" value="Battery" style="rounded=1;whiteSpace=wrap;html=1;" vertex="1" parent="1">
          <mxGeometry x="455" y="70" width="70" height="120" as="geometry" />
        </mxCell>
        <mxCell id="Wlc6HDsytG8gvTmn-VpW-26" value="" style="whiteSpace=wrap;html=1;aspect=fixed;fillColor=#050505;" vertex="1" parent="1">
          <mxGeometry x="200" y="330" width="20" height="20" as="geometry" />
        </mxCell>
        <mxCell id="Wlc6HDsytG8gvTmn-VpW-27" style="edgeStyle=orthogonalEdgeStyle;rounded=0;orthogonalLoop=1;jettySize=auto;html=1;exitX=1;exitY=0.5;exitDx=0;exitDy=0;entryX=0;entryY=0.5;entryDx=0;entryDy=0;endArrow=none;endFill=0;" edge="1" parent="1" source="Wlc6HDsytG8gvTmn-VpW-1" target="Wlc6HDsytG8gvTmn-VpW-26">
          <mxGeometry relative="1" as="geometry">
            <mxPoint x="170" y="340" as="sourcePoint" />
            <mxPoint x="305" y="385" as="targetPoint" />
          </mxGeometry>
        </mxCell>
        <mxCell id="Wlc6HDsytG8gvTmn-VpW-28" value="" style="whiteSpace=wrap;html=1;aspect=fixed;fillColor=#050505;" vertex="1" parent="1">
          <mxGeometry x="200" y="430" width="20" height="20" as="geometry" />
        </mxCell>
        <mxCell id="Wlc6HDsytG8gvTmn-VpW-29" style="edgeStyle=orthogonalEdgeStyle;rounded=0;orthogonalLoop=1;jettySize=auto;html=1;exitX=1;exitY=0.5;exitDx=0;exitDy=0;entryX=0;entryY=0.5;entryDx=0;entryDy=0;endArrow=none;endFill=0;" edge="1" parent="1" source="Wlc6HDsytG8gvTmn-VpW-2" target="Wlc6HDsytG8gvTmn-VpW-28">
          <mxGeometry relative="1" as="geometry">
            <mxPoint x="170" y="440" as="sourcePoint" />
            <mxPoint x="305" y="440" as="targetPoint" />
          </mxGeometry>
        </mxCell>
        <mxCell id="Wlc6HDsytG8gvTmn-VpW-30" value="" style="whiteSpace=wrap;html=1;aspect=fixed;fillColor=#050505;" vertex="1" parent="1">
          <mxGeometry x="200" y="530" width="20" height="20" as="geometry" />
        </mxCell>
        <mxCell id="Wlc6HDsytG8gvTmn-VpW-35" style="edgeStyle=orthogonalEdgeStyle;rounded=0;orthogonalLoop=1;jettySize=auto;html=1;exitX=0.5;exitY=1;exitDx=0;exitDy=0;entryX=0.5;entryY=0;entryDx=0;entryDy=0;endArrow=none;endFill=0;" edge="1" parent="1" source="Wlc6HDsytG8gvTmn-VpW-31" target="Wlc6HDsytG8gvTmn-VpW-34">
          <mxGeometry relative="1" as="geometry" />
        </mxCell>
        <mxCell id="Wlc6HDsytG8gvTmn-VpW-31" value="" style="whiteSpace=wrap;html=1;aspect=fixed;fillColor=#050505;" vertex="1" parent="1">
          <mxGeometry x="480" y="240" width="20" height="20" as="geometry" />
        </mxCell>
        <mxCell id="Wlc6HDsytG8gvTmn-VpW-32" style="edgeStyle=orthogonalEdgeStyle;rounded=0;orthogonalLoop=1;jettySize=auto;html=1;exitX=0.5;exitY=1;exitDx=0;exitDy=0;" edge="1" parent="1" source="Wlc6HDsytG8gvTmn-VpW-21" target="Wlc6HDsytG8gvTmn-VpW-31">
          <mxGeometry relative="1" as="geometry">
            <mxPoint x="490" y="190" as="sourcePoint" />
            <mxPoint x="340" y="320" as="targetPoint" />
            <Array as="points">
              <mxPoint x="490" y="255" />
            </Array>
          </mxGeometry>
        </mxCell>
        <mxCell id="Wlc6HDsytG8gvTmn-VpW-36" style="edgeStyle=orthogonalEdgeStyle;rounded=0;orthogonalLoop=1;jettySize=auto;html=1;exitX=0.5;exitY=1;exitDx=0;exitDy=0;entryX=0.5;entryY=0;entryDx=0;entryDy=0;endArrow=none;endFill=0;" edge="1" parent="1" source="Wlc6HDsytG8gvTmn-VpW-34" target="Wlc6HDsytG8gvTmn-VpW-5">
          <mxGeometry relative="1" as="geometry" />
        </mxCell>
        <mxCell id="Wlc6HDsytG8gvTmn-VpW-34" value="" style="ellipse;whiteSpace=wrap;html=1;fillColor=#000000;" vertex="1" parent="1">
          <mxGeometry x="335" y="340" width="10" height="10" as="geometry" />
        </mxCell>
        <mxCell id="Wlc6HDsytG8gvTmn-VpW-48" style="edgeStyle=elbowEdgeStyle;rounded=0;orthogonalLoop=1;jettySize=auto;html=1;exitX=0;exitY=0.5;exitDx=0;exitDy=0;entryX=0.989;entryY=0.173;entryDx=0;entryDy=0;entryPerimeter=0;endArrow=none;endFill=0;" edge="1" parent="1" source="Wlc6HDsytG8gvTmn-VpW-41" target="Wlc6HDsytG8gvTmn-VpW-6">
          <mxGeometry relative="1" as="geometry">
            <Array as="points">
              <mxPoint x="390" y="420" />
            </Array>
          </mxGeometry>
        </mxCell>
        <mxCell id="Wlc6HDsytG8gvTmn-VpW-49" style="edgeStyle=elbowEdgeStyle;rounded=0;orthogonalLoop=1;jettySize=auto;html=1;exitX=0;exitY=0.5;exitDx=0;exitDy=0;entryX=1;entryY=0.25;entryDx=0;entryDy=0;endArrow=none;endFill=0;" edge="1" parent="1" source="Wlc6HDsytG8gvTmn-VpW-41" target="Wlc6HDsytG8gvTmn-VpW-7">
          <mxGeometry relative="1" as="geometry" />
        </mxCell>
        <mxCell id="Wlc6HDsytG8gvTmn-VpW-56" style="edgeStyle=elbowEdgeStyle;rounded=0;orthogonalLoop=1;jettySize=auto;html=1;exitX=1;exitY=0.5;exitDx=0;exitDy=0;endArrow=none;endFill=0;entryX=0;entryY=0.25;entryDx=0;entryDy=0;" edge="1" parent="1" source="Wlc6HDsytG8gvTmn-VpW-41" target="Wlc6HDsytG8gvTmn-VpW-57">
          <mxGeometry relative="1" as="geometry">
            <mxPoint x="460" y="430" as="targetPoint" />
            <Array as="points">
              <mxPoint x="453" y="430" />
            </Array>
          </mxGeometry>
        </mxCell>
        <mxCell id="Wlc6HDsytG8gvTmn-VpW-41" value="" style="ellipse;whiteSpace=wrap;html=1;fillColor=#000000;" vertex="1" parent="1">
          <mxGeometry x="420" y="415" width="10" height="10" as="geometry" />
        </mxCell>
        <mxCell id="Wlc6HDsytG8gvTmn-VpW-58" style="edgeStyle=elbowEdgeStyle;rounded=0;orthogonalLoop=1;jettySize=auto;html=1;exitX=1;exitY=0.5;exitDx=0;exitDy=0;entryX=0;entryY=0.5;entryDx=0;entryDy=0;endArrow=none;endFill=0;" edge="1" parent="1" source="Wlc6HDsytG8gvTmn-VpW-42" target="Wlc6HDsytG8gvTmn-VpW-57">
          <mxGeometry relative="1" as="geometry" />
        </mxCell>
        <mxCell id="Wlc6HDsytG8gvTmn-VpW-42" value="" style="ellipse;whiteSpace=wrap;html=1;fillColor=#000000;" vertex="1" parent="1">
          <mxGeometry x="420" y="435" width="10" height="10" as="geometry" />
        </mxCell>
        <mxCell id="Wlc6HDsytG8gvTmn-VpW-52" value="Controler" style="rounded=1;whiteSpace=wrap;html=1;fillColor=#FFFFFF;" vertex="1" parent="1">
          <mxGeometry x="570" y="390" width="80" height="90" as="geometry" />
        </mxCell>
        <mxCell id="Wlc6HDsytG8gvTmn-VpW-59" style="edgeStyle=elbowEdgeStyle;rounded=0;orthogonalLoop=1;jettySize=auto;html=1;exitX=1;exitY=0.5;exitDx=0;exitDy=0;endArrow=none;endFill=0;" edge="1" parent="1" source="Wlc6HDsytG8gvTmn-VpW-57" target="Wlc6HDsytG8gvTmn-VpW-52">
          <mxGeometry relative="1" as="geometry" />
        </mxCell>
        <mxCell id="Wlc6HDsytG8gvTmn-VpW-57" value="" style="whiteSpace=wrap;html=1;aspect=fixed;fillColor=#050505;" vertex="1" parent="1">
          <mxGeometry x="480" y="420" width="30" height="30" as="geometry" />
        </mxCell>
        <mxCell id="Wlc6HDsytG8gvTmn-VpW-63" style="edgeStyle=elbowEdgeStyle;rounded=0;orthogonalLoop=1;jettySize=auto;html=1;exitX=0.5;exitY=1;exitDx=0;exitDy=0;entryX=0.5;entryY=0;entryDx=0;entryDy=0;endArrow=none;endFill=0;" edge="1" parent="1" source="Wlc6HDsytG8gvTmn-VpW-60" target="Wlc6HDsytG8gvTmn-VpW-62">
          <mxGeometry relative="1" as="geometry" />
        </mxCell>
        <mxCell id="Wlc6HDsytG8gvTmn-VpW-60" value="Wifi Antenna" style="rounded=1;whiteSpace=wrap;html=1;fillColor=#FFFFFF;" vertex="1" parent="1">
          <mxGeometry x="567.5" y="300" width="85" height="30" as="geometry" />
        </mxCell>
        <mxCell id="Wlc6HDsytG8gvTmn-VpW-65" style="edgeStyle=elbowEdgeStyle;rounded=0;orthogonalLoop=1;jettySize=auto;html=1;exitX=0.5;exitY=1;exitDx=0;exitDy=0;entryX=0.5;entryY=0;entryDx=0;entryDy=0;endArrow=none;endFill=0;" edge="1" parent="1" source="Wlc6HDsytG8gvTmn-VpW-62" target="Wlc6HDsytG8gvTmn-VpW-52">
          <mxGeometry relative="1" as="geometry" />
        </mxCell>
        <mxCell id="Wlc6HDsytG8gvTmn-VpW-62" value="" style="whiteSpace=wrap;html=1;aspect=fixed;fillColor=#050505;" vertex="1" parent="1">
          <mxGeometry x="600" y="340" width="20" height="20" as="geometry" />
        </mxCell>
      </root>
    </mxGraphModel>
  </diagram>
</mxfile>
